<?xml version="1.0" standalone="no"?>
<!DOCTYPE svg PUBLIC "-//W3C//DTD SVG 20010904//EN"
 "http://www.w3.org/TR/2001/REC-SVG-20010904/DTD/svg10.dtd">
<svg version="1.0" xmlns="http://www.w3.org/2000/svg"
 width="260.000000pt" height="260.000000pt" viewBox="0 0 260.000000 260.000000"
 preserveAspectRatio="xMidYMid meet">

<g transform="translate(0.000000,260.000000) scale(0.100000,-0.100000)"
fill="#FFFFFF" stroke="none">
<path d="M877 2253 c-2 -5 -12 -31 -21 -60 -43 -129 -127 -163 -259 -104 l-64
29 -68 -68 -68 -69 31 -69 c18 -38 32 -84 32 -103 0 -68 -53 -122 -153 -155
l-48 -16 3 -100 3 -100 63 -23 c73 -26 99 -47 118 -92 21 -49 17 -83 -17 -158
l-31 -68 69 -69 69 -69 65 31 c70 33 124 38 167 16 41 -21 59 -46 86 -116 l24
-65 100 -3 100 -3 22 65 c44 133 125 167 253 105 l64 -30 64 66 c35 37 65 70
67 75 2 5 -6 26 -16 47 -70 136 -37 222 102 271 l66 24 0 97 0 96 -75 28 c-82
31 -109 56 -126 120 -10 37 -8 49 22 120 l32 78 -68 69 -68 69 -58 -30 c-74
-37 -141 -39 -190 -6 -26 17 -41 40 -64 100 l-30 77 -97 0 c-53 0 -99 -3 -101
-7z m203 -474 c55 -25 105 -71 133 -124 30 -56 30 -173 0 -231 -68 -128 -210
-180 -341 -124 -139 60 -196 220 -126 356 32 63 81 108 140 129 58 21 141 18
194 -6z"/>
<path d="M1897 1263 c-29 -61 -60 -74 -124 -51 l-45 16 -36 -33 -37 -33 18
-36 c33 -70 14 -117 -53 -137 -40 -12 -40 -12 -40 -64 0 -52 1 -53 39 -68 41
-17 71 -50 71 -79 0 -9 -8 -33 -17 -53 l-17 -35 35 -36 c36 -37 44 -38 105
-13 28 11 36 10 59 -5 15 -10 34 -36 43 -57 15 -38 16 -39 67 -39 51 0 52 1
67 39 9 21 28 47 43 57 26 17 29 17 78 0 l50 -18 35 36 36 35 -17 36 c-9 20
-17 44 -17 54 0 28 33 64 71 76 32 11 34 14 37 66 l3 54 -43 15 c-26 9 -48 25
-58 42 -13 25 -13 32 3 79 l19 52 -35 34 c-34 34 -35 35 -65 19 -66 -34 -121
-14 -141 53 -12 41 -12 41 -61 41 -50 0 -50 0 -73 -47z m144 -226 c42 -29 59
-60 59 -115 0 -58 -25 -98 -78 -123 -58 -29 -104 -19 -154 31 -33 33 -38 44
-38 84 0 26 7 60 15 77 35 67 131 90 196 46z"/>
<path d="M1309 831 c-12 -35 -24 -38 -51 -14 -15 13 -23 14 -43 5 -20 -9 -25
-18 -23 -44 3 -31 1 -33 -31 -33 -43 0 -64 -34 -38 -63 24 -27 21 -39 -13 -51
-23 -8 -30 -16 -30 -36 0 -20 7 -28 30 -36 34 -12 37 -24 13 -51 -26 -29 -5
-63 38 -63 32 0 34 -2 31 -33 -2 -26 3 -35 23 -44 20 -9 28 -8 43 5 27 24 39
21 51 -13 5 -17 17 -30 25 -30 28 0 46 12 46 31 0 28 27 35 50 14 17 -16 24
-16 44 -5 21 11 23 18 19 48 l-6 35 35 -6 c30 -4 37 -2 48 19 11 20 11 27 -5
44 -21 23 -14 50 14 50 12 0 20 9 24 27 6 34 1 43 -24 43 -28 0 -35 27 -14 50
16 18 17 23 5 45 -12 22 -18 24 -48 19 l-35 -7 6 37 c5 32 3 38 -19 48 -19 9
-28 8 -44 -7 -24 -21 -47 -14 -52 17 -2 17 -11 24 -31 26 -23 3 -29 -2 -38
-27z m76 -145 c82 -34 74 -154 -12 -187 -54 -20 -133 35 -133 94 0 33 31 78
63 92 40 18 41 18 82 1z"/>
</g>
</svg>
