<?xml version="1.0" standalone="no"?>
<!DOCTYPE svg PUBLIC "-//W3C//DTD SVG 20010904//EN"
 "http://www.w3.org/TR/2001/REC-SVG-20010904/DTD/svg10.dtd">
<svg version="1.0" xmlns="http://www.w3.org/2000/svg"
 width="512.000000pt" height="512.000000pt" viewBox="0 0 512.000000 512.000000"
 preserveAspectRatio="xMidYMid meet">

<g transform="translate(0.000000,512.000000) scale(0.100000,-0.100000)"
fill="#FFFFFF" stroke="none">
<path d="M1442 4310 c-613 -181 -1116 -330 -1118 -332 -5 -6 2217 -659 2239
-658 14 0 1813 525 1920 560 l27 9 0 -127 0 -127 -30 -14 c-49 -21 -80 -76
-80 -140 0 -64 24 -110 76 -141 18 -12 34 -27 34 -33 0 -7 -20 -102 -45 -211
-25 -110 -44 -203 -43 -207 4 -11 292 -258 296 -254 2 1 -20 154 -47 339 -28
184 -51 339 -51 343 0 4 13 17 29 28 69 46 92 151 48 216 -12 19 -37 43 -54
54 l-32 20 -1 141 0 141 96 28 c55 17 90 32 82 36 -11 5 -2166 641 -2218 654
-8 2 -516 -144 -1128 -325z"/>
<path d="M1470 3106 l0 -426 1090 0 1090 0 0 426 c0 337 -3 425 -12 421 -7 -2
-252 -75 -545 -161 l-532 -156 -528 155 c-290 86 -536 158 -545 161 -17 5 -18
-20 -18 -420z"/>
<path d="M852 2544 c-138 -69 -263 -316 -308 -609 -22 -137 -14 -443 14 -570
45 -208 115 -358 212 -456 76 -77 129 -99 242 -99 l68 0 0 -153 c0 -146 5
-177 32 -177 4 0 71 72 149 160 78 88 145 160 149 160 4 0 72 -72 150 -160 78
-88 145 -160 149 -160 25 0 31 32 31 177 l0 153 1378 0 c1330 0 1378 1 1408
19 69 42 66 137 -6 173 -33 17 -121 18 -1407 18 l-1373 0 0 25 0 25 1324 0
1324 0 -29 52 c-152 276 -157 826 -10 1120 l38 78 -1711 0 c-1680 0 -1712 0
-1743 -20 -65 -39 -130 -195 -160 -384 -21 -135 -13 -413 15 -536 30 -126 69
-217 117 -267 41 -42 43 -43 108 -43 65 0 67 -1 67 -25 0 -24 -2 -25 -65 -25
-72 0 -106 13 -146 57 -149 161 -206 632 -119 982 27 105 95 237 143 275 l39
31 1793 5 c1734 5 1794 6 1814 24 47 43 47 111 0 155 l-23 21 -1806 0 -1806 0
-52 -26z m2382 -580 c9 -3 16 -15 16 -25 0 -19 -25 -19 -949 -19 -649 0 -952
3 -956 10 -4 6 -1 17 5 25 11 13 140 15 940 15 511 0 935 -3 944 -6z m-386
-271 l3 -23 -580 0 -581 0 -2 -547 -3 -548 -128 145 c-71 80 -136 146 -145
148 -11 1 -63 -51 -142 -142 -69 -80 -128 -145 -132 -145 -5 -1 -8 244 -8 544
l0 545 -99 0 c-75 0 -100 3 -104 14 -3 7 0 19 6 25 8 8 267 10 962 9 l950 -3
3 -22z m1047 2 c0 -20 -8 -20 -374 -23 -384 -2 -408 0 -379 35 8 11 88 13 382
11 363 -3 371 -3 371 -23z"/>
</g>
</svg>
