<?xml version="1.0" standalone="no"?>
<!DOCTYPE svg PUBLIC "-//W3C//DTD SVG 20010904//EN"
 "http://www.w3.org/TR/2001/REC-SVG-20010904/DTD/svg10.dtd">
<svg version="1.0" xmlns="http://www.w3.org/2000/svg"
 width="512.000000pt" height="512.000000pt" viewBox="0 0 512.000000 512.000000"
 preserveAspectRatio="xMidYMid meet">

<g transform="translate(0.000000,512.000000) scale(0.100000,-0.100000)"
fill="#FFFFFF" stroke="none">
<path d="M1969 4930 c-87 -15 -163 -70 -205 -150 -17 -31 -19 -65 -22 -307
l-3 -273 90 0 91 0 0 246 0 246 29 29 29 29 582 0 582 0 29 -29 29 -29 0 -246
0 -246 91 0 90 0 -3 273 c-3 257 -4 274 -25 312 -29 54 -78 99 -138 127 l-50
23 -575 2 c-316 0 -596 -2 -621 -7z"/>
<path d="M200 4011 c-49 -15 -87 -40 -127 -84 -74 -80 -74 -79 -71 -635 l3
-493 1044 -460 c574 -252 1046 -459 1048 -459 1 0 3 50 3 110 0 119 13 170 48
189 28 15 796 15 824 0 35 -19 48 -70 48 -189 0 -60 2 -110 3 -110 2 0 474
207 1048 459 l1044 460 3 493 c2 435 0 498 -14 542 -19 58 -81 128 -139 159
l-40 22 -2350 2 c-1292 1 -2361 -2 -2375 -6z"/>
<path d="M0 1512 c0 -1213 -3 -1151 69 -1233 21 -24 60 -55 87 -69 l49 -25
2355 0 2355 0 49 25 c27 14 66 45 87 69 73 82 69 21 67 1233 l-3 1087 -1046
-460 -1046 -461 -6 -196 c-6 -243 -19 -289 -106 -399 -49 -62 -143 -126 -219
-148 -73 -22 -191 -22 -264 0 -76 22 -170 86 -219 148 -87 110 -100 156 -106
399 l-6 196 -1016 448 c-559 246 -1031 453 -1048 461 l-33 13 0 -1088z"/>
<path d="M2290 1920 l0 -90 270 0 270 0 0 90 0 90 -270 0 -270 0 0 -90z"/>
<path d="M2290 1473 c0 -147 3 -174 21 -213 97 -214 401 -214 498 0 18 39 21
66 21 213 l0 167 -270 0 -270 0 0 -167z m360 -103 l0 -90 -90 0 -90 0 0 90 0
90 90 0 90 0 0 -90z"/>
</g>
</svg>
