<?xml version="1.0" standalone="no"?>
<!DOCTYPE svg PUBLIC "-//W3C//DTD SVG 20010904//EN"
 "http://www.w3.org/TR/2001/REC-SVG-20010904/DTD/svg10.dtd">
<svg version="1.0" xmlns="http://www.w3.org/2000/svg"
 width="920.000000pt" height="944.000000pt" viewBox="0 0 920.000000 944.000000"
 preserveAspectRatio="xMidYMid meet">
  
<g  transform="translate(0.000000,944.000000) scale(0.100000,-0.100000)"
fill="#FFFFFF" stroke="none">
<path d="M4289 9419 c-968 -65 -1897 -451 -2646 -1097 -638 -551 -1107 -1251
-1389 -2076 -155 -453 -232 -909 -241 -1438 -7 -393 11 -626 78 -988 167 -913
609 -1767 1259 -2434 716 -734 1628 -1202 2615 -1340 238 -34 340 -40 625 -40
301 -1 429 8 680 45 977 146 1871 608 2580 1335 344 353 603 717 832 1170 282
557 442 1132 498 1789 13 155 13 585 0 740 -62 727 -253 1361 -599 1984 -400
719 -1033 1360 -1741 1763 -783 445 -1661 648 -2551 587z m501 -249 c612 -31
1151 -169 1685 -430 789 -387 1448 -1010 1891 -1790 301 -530 485 -1104 560
-1740 21 -186 30 -627 15 -820 -76 -1000 -456 -1918 -1098 -2650 -487 -555
-1084 -969 -1767 -1224 -123 -47 -176 -53 -249 -32 -68 20 -119 74 -137 144
-8 34 -11 236 -9 747 2 631 1 710 -15 800 -36 204 -120 399 -217 508 -28 32
-50 59 -48 61 2 1 74 13 159 26 822 123 1315 440 1596 1025 121 251 192 563
213 937 24 411 -30 729 -171 1013 -59 118 -139 244 -214 336 l-54 66 20 58
c28 81 57 243 65 360 12 186 -21 434 -86 637 -43 137 -39 133 -151 131 -257
-4 -623 -152 -1000 -405 l-88 -58 -117 29 c-347 87 -657 122 -1038 116 -336
-6 -601 -39 -887 -111 l-137 -35 -88 59 c-397 267 -832 433 -1062 405 l-49 -6
-36 -106 c-112 -338 -123 -709 -31 -999 l24 -76 -54 -67 c-29 -36 -78 -104
-108 -150 -218 -335 -303 -696 -277 -1173 32 -567 161 -967 415 -1291 292
-371 739 -597 1375 -696 206 -32 189 -23 141 -74 -107 -116 -196 -317 -226
-511 l-6 -40 -87 -32 c-262 -97 -489 -107 -696 -31 -198 72 -338 200 -491 449
-95 153 -250 302 -387 371 -200 101 -468 94 -468 -12 0 -41 78 -122 187 -196
184 -123 344 -342 454 -620 140 -357 414 -581 792 -650 162 -29 422 -20 655
23 l32 6 0 -399 c0 -273 -4 -411 -11 -434 -32 -94 -105 -143 -214 -142 -62 0
-88 7 -240 68 -560 222 -1021 520 -1449 935 -679 658 -1128 1515 -1290 2460
-76 439 -86 915 -30 1355 109 856 451 1645 1002 2313 130 157 408 436 562 564
659 546 1407 870 2248 974 106 13 289 26 462 32 19 1 123 -3 230 -8z"/>
</g>
</svg>
